<?xml version="1.0" encoding="utf-8"?>
<!-- Generator: Adobe Illustrator 24.0.1, SVG Export Plug-In . SVG Version: 6.00 Build 0)  -->
<svg version="1.1" id="Layer_1" xmlns="http://www.w3.org/2000/svg" xmlns:xlink="http://www.w3.org/1999/xlink" x="0px" y="0px"
	 viewBox="0 0 32 38" style="enable-background:new 0 0 32 38;" xml:space="preserve">
<style type="text/css">
	.st0{fill:#0084CA;}
	.st1{fill:#FFFFFF;}
</style>
<g>
	<rect class="st0" width="32" height="38"/>
</g>
<g>
	<rect x="-41" y="0" class="st0" width="32" height="38"/>
</g>
<g>
	<rect x="-39.5" y="2.3" class="st1" width="29" height="15"/>
	<path class="st0" d="M-11,2.8v14h-28v-14H-11 M-10,1.8h-30v16h30V1.8L-10,1.8z"/>
</g>
<g>
	<rect x="-40" y="19.8" class="st0" width="30" height="16"/>
	<path class="st1" d="M-16,19.8h-4v1h4V19.8L-16,19.8z M-22,19.8h-4v1h4V19.8L-22,19.8z M-28,19.8h-4v1h4V19.8L-28,19.8z M-34,19.8
		h-4v1h4V19.8L-34,19.8z M-39,19.8h-1v4h1V19.8L-39,19.8z M-39,25.8h-1v4h1V25.8L-39,25.8z M-39,31.8h-1v4h1V31.8L-39,31.8z
		 M-34,34.8h-4v1h4V34.8L-34,34.8z M-28,34.8h-4v1h4V34.8L-28,34.8z M-22,34.8h-4v1h4V34.8L-22,34.8z M-16,34.8h-4v1h4V34.8
		L-16,34.8z M-10,34.8h-4v1h4V34.8L-10,34.8z M-10,29.8h-1v4h1V29.8L-10,29.8z M-10,23.8h-1v4h1V23.8L-10,23.8z M-10,19.8h-4v1h3v1
		h1V19.8L-10,19.8z"/>
</g>
<g>
	<path class="st1" d="M-19.5,28.6c0,0.3-0.2,0.5-0.5,0.5h-3.5v3.5c0,0.3-0.2,0.5-0.5,0.5h-2.1c-0.3,0-0.5-0.2-0.5-0.5V29H-30
		c-0.3,0-0.5-0.2-0.5-0.5v-2.1c0-0.3,0.2-0.5,0.5-0.5h3.5v-3.5c0-0.3,0.2-0.5,0.5-0.5h2.1c0.3,0,0.5,0.2,0.5,0.5V26h3.5
		c0.3,0,0.5,0.2,0.5,0.5V28.6z"/>
</g>
<g>
	<rect x="1.5" y="20.5" class="st1" width="29" height="15"/>
	<path class="st0" d="M30,21v14H2V21H30 M31,20H1v16h30V20L31,20z"/>
</g>
<g>
	<rect x="1" y="1.8" class="st0" width="30" height="16"/>
	<path class="st1" d="M25,1.8h-4v1h4V1.8L25,1.8z M19,1.8h-4v1h4V1.8L19,1.8z M13,1.8H9v1h4V1.8L13,1.8z M7,1.8H3v1h4V1.8L7,1.8z
		 M2,1.8H1v4h1V1.8L2,1.8z M2,7.8H1v4h1V7.8L2,7.8z M2,13.8H1v4h1V13.8L2,13.8z M7,16.8H3v1h4V16.8L7,16.8z M13,16.8H9v1h4V16.8
		L13,16.8z M19,16.8h-4v1h4V16.8L19,16.8z M25,16.8h-4v1h4V16.8L25,16.8z M31,16.8h-4v1h4V16.8L31,16.8z M31,11.8h-1v4h1V11.8
		L31,11.8z M31,5.8h-1v4h1V5.8L31,5.8z M31,1.8h-4v1h3v1h1V1.8L31,1.8z"/>
</g>
<g>
	<rect x="43" class="st0" width="16" height="38"/>
</g>
<circle class="st1" cx="48" cy="7" r="1.5"/>
<circle class="st1" cx="54" cy="7" r="1.5"/>
<circle class="st1" cx="48" cy="13" r="1.5"/>
<circle class="st1" cx="54" cy="13" r="1.5"/>
<circle class="st1" cx="48" cy="19" r="1.5"/>
<circle class="st1" cx="54" cy="19" r="1.5"/>
<circle class="st1" cx="48" cy="25" r="1.5"/>
<circle class="st1" cx="54" cy="25" r="1.5"/>
<circle class="st1" cx="48" cy="31" r="1.5"/>
<circle class="st1" cx="54" cy="31" r="1.5"/>
<g>
	<path class="st1" d="M21.5,10.6c0,0.3-0.2,0.5-0.5,0.5h-3.5v3.5c0,0.3-0.2,0.5-0.5,0.5h-2.1c-0.3,0-0.5-0.2-0.5-0.5V11H11
		c-0.3,0-0.5-0.2-0.5-0.5V8.4C10.5,8.2,10.7,8,11,8h3.5V4.5c0-0.3,0.2-0.5,0.5-0.5h2.1c0.3,0,0.5,0.2,0.5,0.5V8H21
		c0.3,0,0.5,0.2,0.5,0.5V10.6z"/>
</g>
</svg>
