<?xml version="1.0" encoding="utf-8"?>
<!-- Generator: Adobe Illustrator 24.0.1, SVG Export Plug-In . SVG Version: 6.00 Build 0)  -->
<svg version="1.1" id="Layer_1" xmlns="http://www.w3.org/2000/svg" xmlns:xlink="http://www.w3.org/1999/xlink" x="0px" y="0px"
	 viewBox="0 0 32 38" style="enable-background:new 0 0 32 38;" xml:space="preserve">
<style type="text/css">
	.st0{fill:#0084CA;}
	.st1{fill:#FFFFFF;}
</style>
<g>
	<rect x="41" class="st0" width="32" height="38"/>
</g>
<g>
	<rect y="0" class="st0" width="32" height="38"/>
</g>
<g>
	<rect x="1.5" y="2.3" class="st1" width="29" height="15"/>
	<path class="st0" d="M30,2.8v14H2v-14H30 M31,1.8H1v16h30V1.8L31,1.8z"/>
</g>
<g>
	<rect x="1" y="19.8" class="st0" width="30" height="16"/>
	<path class="st1" d="M25,19.8h-4v1h4V19.8L25,19.8z M19,19.8h-4v1h4V19.8L19,19.8z M13,19.8H9v1h4V19.8L13,19.8z M7,19.8H3v1h4
		V19.8L7,19.8z M2,19.8H1v4h1V19.8L2,19.8z M2,25.8H1v4h1V25.8L2,25.8z M2,31.8H1v4h1V31.8L2,31.8z M7,34.8H3v1h4V34.8L7,34.8z
		 M13,34.8H9v1h4V34.8L13,34.8z M19,34.8h-4v1h4V34.8L19,34.8z M25,34.8h-4v1h4V34.8L25,34.8z M31,34.8h-4v1h4V34.8L31,34.8z
		 M31,29.8h-1v4h1V29.8L31,29.8z M31,23.8h-1v4h1V23.8L31,23.8z M31,19.8h-4v1h3v1h1V19.8L31,19.8z"/>
</g>
<g>
	<path class="st1" d="M21.5,28.6c0,0.3-0.2,0.5-0.5,0.5h-3.5v3.5c0,0.3-0.2,0.5-0.5,0.5h-2.1c-0.3,0-0.5-0.2-0.5-0.5V29H11
		c-0.3,0-0.5-0.2-0.5-0.5v-2.1c0-0.3,0.2-0.5,0.5-0.5h3.5v-3.5c0-0.3,0.2-0.5,0.5-0.5h2.1c0.3,0,0.5,0.2,0.5,0.5V26H21
		c0.3,0,0.5,0.2,0.5,0.5V28.6z"/>
</g>
<g>
	<rect x="42.5" y="20.5" class="st1" width="29" height="15"/>
	<path class="st0" d="M71,21v14H43V21H71 M72,20H42v16h30V20L72,20z"/>
</g>
<g>
	<rect x="42" y="1.8" class="st0" width="30" height="16"/>
	<path class="st1" d="M66,1.8h-4v1h4V1.8L66,1.8z M60,1.8h-4v1h4V1.8L60,1.8z M54,1.8h-4v1h4V1.8L54,1.8z M48,1.8h-4v1h4V1.8L48,1.8
		z M43,1.8h-1v4h1V1.8L43,1.8z M43,7.8h-1v4h1V7.8L43,7.8z M43,13.8h-1v4h1V13.8L43,13.8z M48,16.8h-4v1h4V16.8L48,16.8z M54,16.8
		h-4v1h4V16.8L54,16.8z M60,16.8h-4v1h4V16.8L60,16.8z M66,16.8h-4v1h4V16.8L66,16.8z M72,16.8h-4v1h4V16.8L72,16.8z M72,11.8h-1v4
		h1V11.8L72,11.8z M72,5.8h-1v4h1V5.8L72,5.8z M72,1.8h-4v1h3v1h1V1.8L72,1.8z"/>
</g>
<g>
	<rect x="84" class="st0" width="16" height="38"/>
</g>
<circle class="st1" cx="89" cy="7" r="1.5"/>
<circle class="st1" cx="95" cy="7" r="1.5"/>
<circle class="st1" cx="89" cy="13" r="1.5"/>
<circle class="st1" cx="95" cy="13" r="1.5"/>
<circle class="st1" cx="89" cy="19" r="1.5"/>
<circle class="st1" cx="95" cy="19" r="1.5"/>
<circle class="st1" cx="89" cy="25" r="1.5"/>
<circle class="st1" cx="95" cy="25" r="1.5"/>
<circle class="st1" cx="89" cy="31" r="1.5"/>
<circle class="st1" cx="95" cy="31" r="1.5"/>
<g>
	<path class="st1" d="M62.5,10.6c0,0.3-0.2,0.5-0.5,0.5h-3.5v3.5c0,0.3-0.2,0.5-0.5,0.5h-2.1c-0.3,0-0.5-0.2-0.5-0.5V11H52
		c-0.3,0-0.5-0.2-0.5-0.5V8.4C51.5,8.2,51.7,8,52,8h3.5V4.5c0-0.3,0.2-0.5,0.5-0.5h2.1c0.3,0,0.5,0.2,0.5,0.5V8H62
		c0.3,0,0.5,0.2,0.5,0.5V10.6z"/>
</g>
</svg>
