<?xml version="1.0" encoding="utf-8"?>
<!-- Generator: Adobe Illustrator 24.0.2, SVG Export Plug-In . SVG Version: 6.00 Build 0)  -->
<svg version="1.1" id="Layer_1" xmlns="http://www.w3.org/2000/svg" xmlns:xlink="http://www.w3.org/1999/xlink" x="0px" y="0px"
	 viewBox="0 0 32 38" style="enable-background:new 0 0 32 38;" xml:space="preserve">
<style type="text/css">
	.st0{fill:#FFFFFF;}
</style>
<path class="st0" d="M20.6,29.1l-4.1,4.2c-0.3,0.3-0.7,0.3-1,0l-4.1-4.2c-0.3-0.3-0.3-0.7,0-1l0.4-0.4c0.3-0.3,0.7-0.3,1,0l2.3,2.3
	h0.1V19.9H4.9V20l2.3,2.3c0.3,0.3,0.3,0.7,0,1l-0.4,0.4c-0.3,0.3-0.7,0.3-1,0l-4.2-4.1c-0.3-0.3-0.3-0.7,0-1l4.2-4.1
	c0.3-0.3,0.7-0.3,1,0l0.4,0.4c0.3,0.3,0.3,0.7,0,1L4.9,18v0.1h10.2V7.9H15l-2.3,2.3c-0.3,0.3-0.7,0.3-1,0l-0.4-0.4
	c-0.3-0.3-0.3-0.7,0-1l4.1-4.2c0.3-0.3,0.7-0.3,1,0l4.1,4.2c0.3,0.3,0.3,0.7,0,1l-0.4,0.4c-0.3,0.3-0.7,0.3-1,0L17,7.9h-0.1v10.2
	h10.2V18l-2.3-2.3c-0.3-0.3-0.3-0.7,0-1l0.4-0.4c0.3-0.3,0.7-0.3,1,0l4.2,4.1c0.3,0.3,0.3,0.7,0,1l-4.2,4.1c-0.3,0.3-0.7,0.3-1,0
	l-0.4-0.4c-0.3-0.3-0.3-0.7,0-1l2.3-2.3v-0.1H16.9v10.2H17l2.3-2.3c0.3-0.3,0.7-0.3,1,0l0.4,0.4C20.9,28.4,20.9,28.8,20.6,29.1z"/>
</svg>
