<?xml version="1.0" encoding="utf-8"?>
<!-- Generator: Adobe Illustrator 24.0.2, SVG Export Plug-In . SVG Version: 6.00 Build 0)  -->
<svg version="1.1" id="Layer_1" xmlns="http://www.w3.org/2000/svg" xmlns:xlink="http://www.w3.org/1999/xlink" x="0px" y="0px"
	 viewBox="0 0 384 512" style="enable-background:new 0 0 384 512;" xml:space="preserve">
<style type="text/css">
	.st0{fill:#FFFFFF;}
</style>
<path class="st0" d="M289.5,313.8H270v19.8h-19v19.5h19v19.8h19.5v-19.8h19.9v-19.5h-19.9L289.5,313.8z"/>
<path class="st0" d="M289.5,266.4v-92.2l-84.7-84.7H26v321.6h215.4c11.4,6.6,24.7,10.4,38.8,10.4c42.9,0,77.8-34.9,77.8-77.8
	C358,303.9,328,271,289.5,266.4z M210.5,122.7l45.1,45.1h-45.1V122.7z M45.5,109H191v78.4h79v79.2c-38.1,5-67.7,37.7-67.7,77.2
	c0,18.1,6.2,34.8,16.6,48H45.5V109z M280.2,402c-32.2,0-58.4-26.2-58.4-58.4s26.2-58.4,58.4-58.4s58.4,26.2,58.4,58.4
	S312.3,402,280.2,402z"/>
<path class="st0" d="M74.5,216.9h166.3v19.5H74.5V216.9z"/>
<path class="st0" d="M74.5,178h77.8v19.5H74.5V178z"/>
<path class="st0" d="M74.5,294.8h77.8v19.5H74.5V294.8z"/>
<path class="st0" d="M74.5,255.9h116.8v19.5H74.5V255.9z"/>
</svg>
