<svg xmlns="http://www.w3.org/2000/svg" xmlns:xlink="http://www.w3.org/1999/xlink" version="1.1" style="enable-background:new 0 0 24.9 34;" xml:space="preserve" width="24.9" height="34"><rect id="backgroundrect" width="100%" height="100%" x="0" y="0" fill="none" stroke="none"/>
<style type="text/css">
	.st0{fill:none;stroke:#ffffff;stroke-width:2;stroke-miterlimit:10;}
</style>


<g class="currentLayer" style=""><title>Layer 1</title><g id="svg_1" class="selected" fill="#ffffff" fill-opacity="1">
	<path d="M22.6,0H2.3C1,0,0,1,0,2.3v29.4C0,33,1,34,2.3,34h20.3c1.3,0,2.3-1,2.3-2.3V2.3C24.9,1,23.8,0,22.6,0z M12.4,33.1   c-0.8,0-1.4-0.6-1.4-1.4c0-0.8,0.6-1.4,1.4-1.4c0.8,0,1.4,0.6,1.4,1.4C13.8,32.5,13.2,33.1,12.4,33.1z M22.5,29.2H2.3V2.8h20.2   V29.2z" id="svg_2" fill="#ffffff" fill-opacity="1"/>
</g><line class="st0" x1="23" y1="2.299999952316284" x2="2.299999952316284" y2="29.200000762939453" id="svg_3"/></g></svg>