<svg xmlns="http://www.w3.org/2000/svg" xmlns:xlink="http://www.w3.org/1999/xlink" version="1.1" style="enable-background:new 0 0 452.4 365.1;" xml:space="preserve" width="452.4" height="365.1"><rect id="backgroundrect" width="100%" height="100%" x="0" y="0" fill="none" stroke="none"/>
<style type="text/css">
	.st0{fill:none;stroke:#ffffff;stroke-width:20;stroke-miterlimit:10;}
</style>


<g class="currentLayer" style=""><title>Layer 1</title><g id="svg_1" class="selected" fill="#ffffff" fill-opacity="1">
	<g id="Layer_8_14_" fill="#ffffff" fill-opacity="1">
		<path d="M441.7,0h-431C4.8,0,0,4.8,0,10.7v297.4c0,5.9,4.8,10.7,10.7,10.7h162.1v25.6c0,0.4,0.1,0.7,0.1,1.1h-23.3    c-5.4,0-9.8,4.4-9.8,9.8c0,5.4,4.4,9.8,9.8,9.8h158.5c5.4,0,9.8-4.4,9.8-9.8c0-5.4-4.4-9.8-9.8-9.8h-23.3c0-0.4,0.1-0.7,0.1-1.1    v-25.6h156.7c5.9,0,10.7-4.8,10.7-10.7V10.7C452.4,4.8,447.6,0,441.7,0z M422.1,261.5c0,5.9-4.8,10.7-10.7,10.7H41    c-5.9,0-10.7-4.8-10.7-10.7V36c0-5.9,4.8-10.7,10.7-10.7h370.4c5.9,0,10.7,4.8,10.7,10.7L422.1,261.5L422.1,261.5z" id="svg_2" fill="#ffffff" fill-opacity="1"/>
	</g>
</g><line class="st0" x1="441.5" y1="17.299999237060547" x2="13.5" y2="279" id="svg_3"/></g></svg>