<svg xmlns="http://www.w3.org/2000/svg" xmlns:xlink="http://www.w3.org/1999/xlink" version="1.1" style="enable-background:new 0 0 20.3 35;" xml:space="preserve" width="20.3" height="35"><rect id="backgroundrect" width="100%" height="100%" x="0" y="0" fill="none" stroke="none"/>
<style type="text/css">
	.st0{fill:none;stroke:#ffffff;stroke-width:2;stroke-miterlimit:10;}
</style>


<g class="currentLayer" style=""><title>Layer 1</title><g id="svg_1" class="selected" fill="#ffffff" fill-opacity="1">
	<path d="M18,0H2.4C1.1,0,0,1.1,0,2.4v30.3C0,33.9,1.1,35,2.4,35H18c1.3,0,2.4-1.1,2.4-2.4V2.4C20.3,1.1,19.3,0,18,0z M7.7,1.7h5   c0.2,0,0.3,0.1,0.3,0.3c0,0.2-0.1,0.3-0.3,0.3h-5C7.5,2.3,7.4,2.1,7.4,2C7.4,1.8,7.5,1.7,7.7,1.7z M10.2,33.8   c-0.7,0-1.2-0.5-1.2-1.2s0.5-1.2,1.2-1.2s1.2,0.5,1.2,1.2S10.8,33.8,10.2,33.8z M18.7,30.6h-17V3.7h17V30.6z" id="svg_2" fill="#ffffff" fill-opacity="1"/>
</g><line class="st0" x1="18.700000762939453" y1="3.700000047683716" x2="1.600000023841858" y2="30.600000381469727" id="svg_3"/></g></svg>