<?xml version="1.0" encoding="utf-8"?>
<!-- Generator: Adobe Illustrator 24.0.2, SVG Export Plug-In . SVG Version: 6.00 Build 0)  -->
<svg version="1.1" id="Layer_1" xmlns="http://www.w3.org/2000/svg" xmlns:xlink="http://www.w3.org/1999/xlink" x="0px" y="0px"
	 viewBox="0 0 512 512" style="enable-background:new 0 0 512 512;" xml:space="preserve">
<style type="text/css">
	.st0{fill:#FFFFFF;}
</style>
<path class="st0" d="M295.3,376.8l-69,69c-44.2,44.3-115.9,44.3-160.1,0c-44.3-44.2-44.3-115.9,0-160.1l69-69c1-1,2-2,3.1-3
	c6.6-6.1,17.2-1.7,17.6,7.2c0.2,4.2,0.5,8.4,1.1,12.5c0.4,3.2-0.6,6.5-3,8.8c-14.4,14.3-65.5,65.4-65.6,65.6c-32,32-32,83.8,0,115.8
	c32,32,83.8,32,115.8,0l69-69l0.3-0.3c31.6-31.9,31.5-83.7-0.3-115.5c-7.2-7.2-15.3-12.7-24-16.6c-4-1.8-6.5-5.8-6.2-10.2
	c0.3-4.5,1.1-9,2.5-13.3c1.8-5.8,8.3-8.7,13.9-6.3c13.1,5.5,25.4,13.6,36.1,24.3C339.5,260.8,339.5,332.7,295.3,376.8L295.3,376.8z
	 M216.7,295.3c10.7,10.7,23,18.8,36.1,24.3c5.6,2.3,12-0.6,13.9-6.3c1.4-4.3,2.2-8.8,2.5-13.3c0.3-4.4-2.2-8.4-6.2-10.2
	c-8.7-3.9-16.9-9.5-24-16.6c-31.8-31.8-31.9-83.5-0.3-115.5l0.3-0.3l69-69c32-32,83.8-32,115.8,0c32,32,32,83.8,0,115.8
	c-0.1,0.1-51.2,51.2-65.6,65.6c-2.3,2.3-3.4,5.6-3,8.8c0.5,4.2,0.9,8.3,1.1,12.5c0.4,9,11,13.3,17.6,7.2c1-1,2.1-2,3.1-3l69-69
	c44.3-44.3,44.3-115.9,0-160.1c-44.3-44.3-115.9-44.3-160.1,0l-69,69C172.5,179.3,172.5,251.2,216.7,295.3L216.7,295.3z"/>
</svg>
