<?xml version="1.0" encoding="utf-8"?>
<!-- Generator: Adobe Illustrator 24.0.2, SVG Export Plug-In . SVG Version: 6.00 Build 0)  -->
<svg version="1.1" id="Layer_1" xmlns="http://www.w3.org/2000/svg" xmlns:xlink="http://www.w3.org/1999/xlink" x="0px" y="0px"
	 viewBox="0 0 512 512" style="enable-background:new 0 0 512 512;" xml:space="preserve">
<style type="text/css">
	.st0{fill:#FFFFFF;}
</style>
<path class="st0" d="M43.3,356.8l-11,99.8c-1.5,13.4,9.8,24.7,23.2,23.2l99.9-11.1l308.3-308.3c21.9-21.9,21.9-57.3,0-79.2
	l-32.8-32.8c-21.9-21.9-57.3-21.9-79.2,0L43.3,356.8z M142.4,442l-81.4,9l9-81.4l237.9-237.9l72.3,72.3L142.4,442L142.4,442z
	 M443.7,140.6l-43.7,43.7l-72.3-72.3l43.7-43.7c10.9-10.9,28.6-10.9,39.6,0l32.8,32.8C454.7,111.9,454.7,129.7,443.7,140.6
	L443.7,140.6z"/>
</svg>
