<?xml version="1.0" encoding="utf-8"?>
<!-- Generator: Adobe Illustrator 24.0.2, SVG Export Plug-In . SVG Version: 6.00 Build 0)  -->
<svg version="1.1" id="Layer_1" xmlns="http://www.w3.org/2000/svg" xmlns:xlink="http://www.w3.org/1999/xlink" x="0px" y="0px"
	 viewBox="0 0 24 24" style="enable-background:new 0 0 24 24;" xml:space="preserve">
<style type="text/css">
	.st0{fill:#A8A8A8;}
</style>
<path class="st0" d="M16.7,12.9c0,0.2-0.2,0.4-0.4,0.4h-3v3c0,0.2-0.2,0.4-0.4,0.4h-1.8c-0.2,0-0.4-0.2-0.4-0.4v-3h-3
	c-0.2,0-0.4-0.2-0.4-0.4v-1.8c0-0.2,0.2-0.4,0.4-0.4h3v-3c0-0.2,0.2-0.4,0.4-0.4h1.8c0.2,0,0.4,0.2,0.4,0.4v3h3
	c0.2,0,0.4,0.2,0.4,0.4V12.9z"/>
</svg>
