<?xml version="1.0" encoding="utf-8"?>
<!-- Generator: Adobe Illustrator 24.0.2, SVG Export Plug-In . SVG Version: 6.00 Build 0)  -->
<svg version="1.1" id="Layer_1" xmlns="http://www.w3.org/2000/svg" xmlns:xlink="http://www.w3.org/1999/xlink" x="0px" y="0px"
	 viewBox="0 0 448 512" style="enable-background:new 0 0 448 512;" xml:space="preserve">
<style type="text/css">
	.st0{fill:#FFFFFF;}
</style>
<path class="st0" d="M301.5,123.1l-23.2-31c-6.3-8.3-16.1-13.3-26.6-13.3h-55.4c-10.4,0-20.3,5-26.6,13.3l-23.2,31H74.5
	c-9.2,0-16.6,7.4-16.6,16.6v1.4c0,2.3,1.8,4.2,4.2,4.2h14.4l23,257.7c1.6,17.1,15.8,30.3,33,30.3h182.9c17.2,0,31.6-13.1,33-30.3
	l23-257.7h14.4c2.3,0,4.2-1.8,4.2-4.2v-1.4c0-9.2-7.4-16.6-16.6-16.6L301.5,123.1L301.5,123.1z M196.3,101h55.4
	c3.5,0,6.8,1.7,8.9,4.4l13.3,17.7h-99.7l13.3-17.7C189.6,102.6,192.9,101,196.3,101z M326.4,400.9c-0.5,5.7-5.2,10.1-11,10.1H132.6
	c-5.7,0-10.5-4.3-11-10.1L98.8,145.3h250.4L326.4,400.9z"/>
</svg>
