<?xml version="1.0" encoding="utf-8"?>
<!-- Generator: Adobe Illustrator 23.1.0, SVG Export Plug-In . SVG Version: 6.00 Build 0)  -->
<svg version="1.1" id="Layer_1" xmlns="http://www.w3.org/2000/svg" xmlns:xlink="http://www.w3.org/1999/xlink" x="0px" y="0px"
	 viewBox="0 0 512 512" style="enable-background:new 0 0 512 512;" xml:space="preserve">
<style type="text/css">
	.st0{fill:#FFFFFF;}
</style>
<path class="st0" d="M214.1,152.5c-4.1-4.1-4.1-10.7,0-14.8l71.6-71.6c44.3-44.3,116-44.3,160.2,0c44.3,44.3,44.3,116,0,160.2
	l-71.6,71.6c-4.1,4.1-10.7,4.1-14.8,0l-7.4-7.4c-4.1-4.1-4.1-10.7,0-14.8l71.6-71.6c32-32,32-83.8,0-115.9c-32-32-83.8-32-115.9,0
	l-71.6,71.6c-4.1,4.1-10.7,4.1-14.8,0L214.1,152.5L214.1,152.5z M204.1,423.8c-31.9,31.9-83.9,31.9-115.9,0c-32-32-32-83.8,0-115.9
	l71.6-71.6c4.1-4.1,4.1-10.7,0-14.8l-7.4-7.4c-4.1-4.1-10.7-4.1-14.8,0l-71.6,71.6c-44.3,44.3-44.3,116,0,160.2
	c44.2,44.2,116.1,44.2,160.2,0l71.6-71.6c4.1-4.1,4.1-10.7,0-14.8l-7.4-7.4c-4.1-4.1-10.7-4.1-14.8,0L204.1,423.8L204.1,423.8z
	 M43.3,35.9l-7.4,7.4c-4.1,4.1-4.1,10.7,0,14.8l417.9,417.9c4.1,4.1,10.7,4.1,14.8,0l7.4-7.4c4.1-4.1,4.1-10.7,0-14.8L58.1,35.9
	C54,31.9,47.4,31.9,43.3,35.9z"/>
</svg>
