<?xml version="1.0" encoding="iso-8859-1"?>
<!-- Generator: Adobe Illustrator 21.0.0, SVG Export Plug-In . SVG Version: 6.00 Build 0)  -->
<svg version="1.1" id="Layer_1" xmlns="http://www.w3.org/2000/svg" xmlns:xlink="http://www.w3.org/1999/xlink" x="0px" y="0px"
	 viewBox="0 0 24 24" enable-background="new 0 0 24 24" xml:space="preserve">
<g>
	<path fill="#303C42" d="M12,1C7.8515625,1,3.9804688,2.6567383,1.6455078,5.4321289
		c-0.1425781,0.1699219-0.15625,0.4135742-0.0341797,0.5981445c1.8681641,2.8139648,3.4902344,4.46875,4.2685547,4.8603516
		c0.0712891,0.0356445,0.1484375,0.0532227,0.2246094,0.0532227c0.1386719,0,0.2744141-0.0576172,0.3720703-0.1655273
		c0.1630859-0.1821289,0.3974609-0.5063477,0.5966797-0.7856445C7.9765625,8.7299805,9.2138672,7,11.4619141,7
		c5.4023438,0,10.2050781,1.0546875,11.7832031,1.4013672c0,0,0.0976563,0.0214844,0.0986328,0.0214844
		c0.1279297,0.0292969,0.2666016,0.0048828,0.3779297-0.0683594c0.1123047-0.0727539,0.1904297-0.1870117,0.2177734-0.3173828
		C23.9804688,7.8427734,24,7.6674805,24,7.5C24,5.112793,18.0703125,1,12,1z"/>
	<path fill="#303C42" d="M22.4472656,9.2519531C18.5683594,8.4213867,14.8720703,8,11.4619141,8
		c-1.6035156,0-2.5683594,1.1665039-3.5771484,2.5776367C7.2539063,11.4594727,6.8359375,12,6.2275391,12
		c-1.0791016,0-2.8886719-1.7138672-4.9658203-4.7026367C1.1601563,7.1503906,0.9873047,7.0717773,0.8076172,7.0844727
		C0.6279297,7.1005859,0.4716797,7.2109375,0.3974609,7.3740234C0.2246094,7.7495117,0.1044922,8.0634766,0.0195313,8.3623047
		C0.0068359,8.4072266,0,8.4536133,0,8.5C0,10.9790039,2.4746094,16,4.5,16h3.3701172
		c0.4227295,0.4312134,0.8109741,0.8339233,1.1445313,1.1831055C10.1643066,18.3897705,11.005127,19.2567139,12,19.6882324V22.5
		c0,0.2763672,0.2236328,0.5,0.5,0.5h2c0.2763672,0,0.5-0.2236328,0.5-0.5v-3.112854
		c1.1060791-0.9851685,2.0461426-3.190979,3.328125-6.8251343c0.067749-0.1928711,0.1350708-0.3821411,0.2001343-0.5639648
		c1.3286133-0.010376,2.9973755-0.7695313,4.1621704-1.8979492c0.1328125-0.128418,0.1835938-0.3198242,0.1328125-0.4970703
		C22.7724609,9.425293,22.6279297,9.2905273,22.4472656,9.2519531z M15.4970703,11.5712891
		c-1.2958984,3.6689453-1.9599609,4.9438477-2.2861328,5.3740234c-0.4033203-0.1577148-0.9267578-0.6801758-2.0273438-1.8344727
		c-0.3243408-0.34021-0.7053223-0.7351685-1.1172485-1.1551514c0.0348511-0.0803223,0.0701294-0.1604614,0.1045532-0.2408447
		C10.7441406,12.3803711,11.3359375,11,13,11c1.2414551,0,2.0112915,0.1299438,2.5953979,0.2941895L15.4970703,11.5712891z"/>
</g>
<g>
</g>
<g>
</g>
<g>
</g>
<g>
</g>
<g>
</g>
<g>
</g>
<g>
</g>
<g>
</g>
<g>
</g>
<g>
</g>
<g>
</g>
<g>
</g>
<g>
</g>
<g>
</g>
<g>
</g>
</svg>
